<?xml version="1.0" encoding="utf-8"?>
<!-- Generator: Adobe Illustrator 27.3.1, SVG Export Plug-In . SVG Version: 6.00 Build 0)  -->
<svg version="1.1" id="Layer_1" xmlns="http://www.w3.org/2000/svg" xmlns:xlink="http://www.w3.org/1999/xlink" x="0px" y="0px"
	 viewBox="0 0 405.1 114.4" style="enable-background:new 0 0 405.1 114.4;" xml:space="preserve">
<style type="text/css">
	.st0{fill:#222A37;}
	.st1{fill-rule:evenodd;clip-rule:evenodd;fill:#222A37;}
	.st2{fill:#DFCC22;}
</style>
<g>
	<g>
		<g>
			<path class="st0" d="M140.8,64.2c-3.3-1-5.9-2.3-7.8-4l2.9-6.6c1.9,1.5,4.2,2.7,6.9,3.6c2.7,0.9,5.5,1.4,8.2,1.4
				c3.4,0,5.9-0.5,7.6-1.6s2.5-2.5,2.5-4.3c0-1.3-0.5-2.4-1.4-3.2c-0.9-0.9-2.1-1.5-3.6-2c-1.4-0.5-3.4-1-5.9-1.6
				c-3.5-0.8-6.3-1.7-8.5-2.5s-4-2.1-5.6-3.9c-1.5-1.8-2.3-4.1-2.3-7.2c0-2.5,0.7-4.8,2.1-6.9s3.4-3.7,6.2-4.9s6.2-1.8,10.2-1.8
				c2.8,0,5.5,0.4,8.2,1c2.7,0.7,5,1.7,7,3l-2.7,6.6c-2-1.2-4.1-2.1-6.3-2.7s-4.3-0.9-6.3-0.9c-3.4,0-5.9,0.6-7.5,1.7
				c-1.6,1.1-2.5,2.6-2.5,4.5c0,1.3,0.5,2.4,1.4,3.2c0.9,0.8,2.1,1.5,3.6,2c1.4,0.5,3.4,1,5.9,1.6c3.4,0.8,6.2,1.6,8.4,2.5
				s4,2.1,5.6,3.9c1.5,1.7,2.3,4.1,2.3,7.1c0,2.5-0.7,4.8-2.1,6.9s-3.5,3.7-6.2,4.9s-6.2,1.8-10.2,1.8
				C147.5,65.7,144.1,65.2,140.8,64.2z"/>
			<path class="st0" d="M210.9,54.4H188L183.5,65h-8.8l20.6-45.8h8.4L224.4,65h-8.9L210.9,54.4z M208.1,47.7l-8.6-20l-8.6,20H208.1z
				"/>
			<path class="st0" d="M242,26.4v13.9h22.1v7.2H242V65h-8.5V19.2h33.4v7.1H242z"/>
			<path class="st0" d="M312.7,57.9V65h-34.3V19.2h33.4v7.1h-24.9v11.9H309v7h-22.1v12.6L312.7,57.9L312.7,57.9z"/>
			<path class="st0" d="M334.8,26.4h-15.2v-7.2h38.8v7.2h-15.2V65h-8.5L334.8,26.4L334.8,26.4z"/>
			<path class="st0" d="M387.2,48.9V65h-8.5V49l-18-29.8h9.1l13.4,22.3l13.5-22.3h8.4L387.2,48.9z"/>
		</g>
		<g>
			<path class="st0" d="M141.1,91.8h3.1v8.9c-2.3,1.9-5.5,2.9-8.7,2.9c-7,0-12.2-4.9-12.2-11.7c0-6.8,5.2-11.7,12.3-11.7
				c3.6,0,6.7,1.2,8.8,3.5l-2,2c-1.9-1.8-4-2.6-6.6-2.6c-5.3,0-9.1,3.7-9.1,8.8c0,5,3.8,8.8,9.1,8.8c1.9,0,3.7-0.4,5.4-1.5V91.8z"/>
			<path class="st0" d="M165.8,103.4l-4.9-7c-0.5,0-1,0.1-1.4,0.1h-5.7v7h-3.3V80.5h8.9c6,0,9.5,3,9.5,8c0,3.5-1.8,6.1-5,7.2
				l5.4,7.7L165.8,103.4L165.8,103.4z M165.7,88.5c0-3.3-2.2-5.1-6.4-5.1h-5.6v10.3h5.6C163.5,93.7,165.7,91.8,165.7,88.5z"/>
			<path class="st0" d="M172.4,92c0-6.7,5.2-11.7,12.2-11.7c7,0,12.1,5,12.1,11.7s-5.2,11.7-12.1,11.7
				C177.6,103.7,172.4,98.7,172.4,92z M193.5,92c0-5.1-3.8-8.8-8.9-8.8c-5.1,0-8.9,3.7-8.9,8.8c0,5.1,3.8,8.8,8.9,8.8
				C189.7,100.8,193.5,97,193.5,92z"/>
			<path class="st0" d="M201.5,93.5v-13h3.3v12.9c0,5.1,2.3,7.4,6.4,7.4s6.5-2.3,6.5-7.4V80.5h3.2v13c0,6.6-3.6,10.1-9.7,10.1
				C205.2,103.7,201.5,100.2,201.5,93.5z"/>
			<path class="st0" d="M246.1,88.5c0,5-3.6,8-9.5,8h-5.6v6.9h-3.3V80.5h8.9C242.5,80.5,246.1,83.5,246.1,88.5z M242.8,88.5
				c0-3.3-2.2-5.1-6.4-5.1h-5.6v10.3h5.6C240.6,93.6,242.8,91.8,242.8,88.5z"/>
			<path class="st0" d="M257.9,100.8l1.2-2.5c1.7,1.5,4.6,2.6,7.5,2.6c4,0,5.7-1.5,5.7-3.5c0-5.6-13.9-2.1-13.9-10.6
				c0-3.5,2.8-6.5,8.8-6.5c2.7,0,5.5,0.7,7.4,2l-1.1,2.6c-2-1.3-4.2-1.9-6.3-1.9c-3.9,0-5.6,1.6-5.6,3.6c0,5.6,13.9,2.1,13.9,10.5
				c0,3.5-2.8,6.5-8.9,6.5C263.2,103.7,259.7,102.5,257.9,100.8z"/>
			<path class="st0" d="M287.7,93.2l-4.2,4.2v5.9h-3.3V80.5h3.3v12.8L296,80.5h3.7l-9.8,10.3l10.4,12.6h-3.8L287.7,93.2z"/>
			<path class="st0" d="M311.4,90.5h8.8v2.7h-8.8V90.5z"/>
		</g>
		<rect x="311.4" y="90.5" class="st1" width="93.7" height="2.7"/>
	</g>
	<g>
		<path class="st2" d="M111.7,14.7L111.7,14.7c-2.7-1.6-5.4-3-8.3-4.3c-1.8-0.8-3.5-1.6-5.3-2.3c-1.9-0.8-3.7-1.5-5.6-2.1
			c-1.6-0.5-3.2-1.1-4.8-1.5c-2.1-0.6-4.2-1.1-6.3-1.6c-1.4-0.3-2.9-0.6-4.3-0.9c-2.3-0.4-4.6-0.8-6.9-1c-0.5-0.1-1.1-0.1-1.6-0.2
			c-0.8-0.1-1.6-0.1-2.3-0.2C63.8,0.2,61.4,0.1,59,0c-0.3,0-0.6,0-0.9,0v10.4v10.4v10.4v9.3v1v3.5v6.9v9v1.4v1.1v9.3v3.5v1.9v5v6.6
			v1.5v2.3v8.8v1.3c0.5,0.3,1,0.6,1.4,0.8l0,0c-0.4-0.2-0.9-0.4-1.4-0.5v10.2c0.5-0.1,1-0.3,1.4-0.5l0,0c2.7-1.6,5.3-3.2,7.9-5
			c0.4-0.2,0.7-0.5,1.1-0.8c1.2-0.9,2.5-1.8,3.6-2.7c1.6-1.2,3.1-2.5,4.6-3.8c1.3-1.1,2.5-2.2,3.7-3.4c1.6-1.5,3.1-3,4.6-4.6
			c1-1.1,2-2.2,2.9-3.3c1.5-1.8,3-3.6,4.4-5.4c0.8-1,1.6-2.1,2.3-3.2c1.4-2,2.7-4,3.9-6.1c0.6-1.1,1.3-2.2,1.9-3.3
			c1.2-2.1,2.3-4.2,3.3-6.4c0.6-1.2,1.1-2.4,1.6-3.6c-2.5-2.6-5.3-5-8.3-7.2c-2-1.5-4.1-2.9-6.3-4.1c-0.9-0.5-1.8-1-2.7-1.5
			c-3.1-1.6-6.2-3-9.6-4.1c-0.8,2.4-1.8,4.7-2.8,6.9c-0.4,0.9-0.9,1.8-1.3,2.7c-1.2,2.3-2.5,4.6-3.9,6.7c2.6,2.3,5.4,4.4,8.3,6.3
			c1.9-2.9,3.6-5.9,5.2-8.9c0,0,0,0,0-0.1c0.5,0.3,0.9,0.6,1.4,0.9c0.1,0.1,0.2,0.1,0.3,0.2c2.5,1.4,4.8,3,7,4.8
			c-1.4,2.7-2.9,5.3-4.5,7.9c-0.3,0.4-0.5,0.8-0.8,1.2c-1.7,2.6-3.5,5-5.5,7.4c-0.2,0.3-0.5,0.6-0.8,0.9c-2.1,2.5-4.2,4.9-6.5,7.1
			c-0.2,0.2-0.3,0.3-0.5,0.5c-1.8,1.8-3.7,3.5-5.7,5.2v-9v-0.1v-5.1v-6v-1.4v-8.7v-0.7v-4.3v-6.3V42.5c0,0,0,0,0,0c0,0,0,0,0-0.1V32
			V21.5V11.1c1.2,0.1,2.5,0.3,3.7,0.5c0.4,0.1,0.8,0.1,1.2,0.2c3.2,0.5,6.4,1.2,9.5,2.1c0.2,0.1,0.5,0.1,0.7,0.2
			c3.4,0.9,6.6,2,9.9,3.3c0,0,0.1,0,0.1,0c3.5,1.4,6.9,3,10.2,4.8c-0.1,3.8-0.4,7.6-1,11.3c0,0,0,0.1,0,0.1c-0.5,3.5-1.2,6.9-2,10.2
			c-0.1,0.2-0.1,0.5-0.2,0.7c3.1,2.1,6,4.4,8.8,6.9c0.6-2.1,1.2-4.2,1.8-6.3c0.4-1.6,0.8-3.2,1.1-4.9c0.4-2,0.7-4,1-6
			c0.3-1.9,0.5-3.8,0.6-5.8c0.3-3,0.4-6.1,0.4-9.2C114.2,17.2,113.2,15.6,111.7,14.7z"/>
		<path class="st0" d="M45.7,42.5C45.6,42.5,45.6,42.5,45.7,42.5c-3.5,0.6-6.8,1.5-10.1,2.5c-3.3,1.1-6.5,2.5-9.6,4.1
			c-3.1,1.6-6.1,3.5-9,5.6c-0.1-0.4-0.3-0.8-0.4-1.1c-1.1-3-2.1-6.1-2.9-9.2c-0.1-0.2-0.1-0.5-0.2-0.7c-0.9-3.3-1.5-6.7-2.1-10.2
			c0,0,0-0.1,0-0.1c-0.5-3.7-0.9-7.4-1-11.3c3.3-1.8,6.7-3.4,10.2-4.8c0,0,0.1,0,0.1,0c3.2-1.3,6.5-2.4,9.9-3.3
			c0.2-0.1,0.4-0.1,0.7-0.2c3.1-0.8,6.2-1.5,9.5-2.1c0.4-0.1,0.8-0.1,1.2-0.2c1.2-0.2,2.5-0.4,3.7-0.5v10.5V32
			c1.5-0.2,3-0.4,4.6-0.5c1-0.1,2-0.1,3-0.2c0.9,0,1.9-0.1,2.9-0.1V20.8V10.4V0c-0.3,0-0.6,0-0.9,0c-2.4,0-4.8,0.2-7.2,0.4
			c-0.8,0.1-1.6,0.1-2.3,0.2c-0.5,0.1-1.1,0.1-1.6,0.2c-2.3,0.3-4.6,0.6-6.9,1c-1.4,0.3-2.9,0.6-4.3,0.9c-2.1,0.5-4.2,1-6.3,1.6
			c-1.6,0.5-3.2,1-4.8,1.5C19.8,6.5,18,7.2,16.1,8c-1.8,0.7-3.6,1.5-5.3,2.3c-2.8,1.3-5.6,2.8-8.3,4.3v0C1,15.5,0,17.2,0,19.1
			c0,3.1,0.1,6.2,0.4,9.2c0.2,1.9,0.4,3.9,0.6,5.8c0.3,2,0.6,4,1,6c0.3,1.6,0.7,3.3,1.1,4.9c0.5,2.1,1.1,4.2,1.8,6.3
			c0.4,1.4,0.9,2.8,1.4,4.1c0.8,2.2,1.6,4.4,2.6,6.5c0.5,1.2,1.1,2.4,1.6,3.6c1,2.2,2.1,4.3,3.3,6.4c2.3-2.7,4.9-5.3,7.7-7.5
			c2.2-1.8,4.6-3.4,7-4.8c0.1,0,0.1-0.1,0.2-0.1c0.5-0.3,0.9-0.6,1.4-0.9c0,0,0,0,0,0.1c3-1.6,6.2-3,9.6-4.1c1.9-0.6,3.9-1.1,6-1.5
			v6.3v4.3v0.7v8.7v1.4v6v5.1v0.1v9c-2-1.6-3.9-3.4-5.7-5.2c-0.2-0.2-0.3-0.3-0.5-0.5c-2.3-2.3-4.5-4.6-6.5-7.1
			c-0.2-0.3-0.5-0.6-0.8-0.9c-1.9-2.4-3.8-4.9-5.4-7.4c-2.7,2.3-5.1,4.9-7.2,7.8c0.8,1.1,1.5,2.1,2.3,3.2c1.4,1.9,2.9,3.7,4.4,5.4
			c0.9,1.1,1.9,2.2,2.9,3.3c1.5,1.6,3,3.1,4.6,4.6c1.2,1.2,2.5,2.3,3.7,3.4c1.5,1.3,3,2.6,4.6,3.8c1.2,0.9,2.4,1.8,3.6,2.7
			c0.4,0.2,0.7,0.5,1.1,0.8c2.5,1.7,5,3.4,7.7,4.9c0,0,0,0,0.1,0c0.5,0.3,1.1,0.6,1.6,0.9v-0.3v-10.2v-0.3v-1.3v-8.8v-2.3v-1.5v-6.6
			v-5v-1.9v-3.5v-9.3v-1.1v-1.4v-9v-6.9v-3.5C52.5,41.6,49.1,41.9,45.7,42.5C45.7,42.5,45.7,42.5,45.7,42.5z"/>
	</g>
</g>
</svg>
